{
	"patcher" : 	{
		"fileversion" : 1,
		"rect" : [ 120.0, 74.0, 837.0, 708.0 ],
		"bglocked" : 0,
		"defrect" : [ 120.0, 74.0, 837.0, 708.0 ],
		"openrect" : [ 0.0, 0.0, 0.0, 0.0 ],
		"openinpresentation" : 0,
		"default_fontsize" : 12.0,
		"default_fontface" : 0,
		"default_fontname" : "Arial",
		"gridonopen" : 0,
		"gridsize" : [ 15.0, 15.0 ],
		"gridsnaponopen" : 0,
		"toolbarvisible" : 1,
		"boxanimatetime" : 200,
		"imprint" : 0,
		"enablehscroll" : 1,
		"enablevscroll" : 1,
		"devicewidth" : 0.0,
		"boxes" : [ 			{
				"box" : 				{
					"maxclass" : "comment",
					"text" : "and choose the one from Max/MSP (should be \"MaxOutput\")",
					"linecount" : 2,
					"numoutlets" : 0,
					"patching_rect" : [ 549.0, 117.0, 215.0, 34.0 ],
					"fontname" : "Arial",
					"id" : "obj-31",
					"fontsize" : 12.0,
					"numinlets" : 1
				}

			}
, 			{
				"box" : 				{
					"maxclass" : "comment",
					"text" : "3. Launch Millumin and add a Syphon Layer",
					"linecount" : 2,
					"numoutlets" : 0,
					"patching_rect" : [ 549.0, 74.0, 212.0, 39.0 ],
					"fontname" : "Arial",
					"id" : "obj-30",
					"fontface" : 1,
					"fontsize" : 14.0,
					"numinlets" : 1
				}

			}
, 			{
				"box" : 				{
					"maxclass" : "comment",
					"text" : "http://syphon.v002.info/",
					"numoutlets" : 0,
					"patching_rect" : [ 514.0, 340.0, 156.0, 20.0 ],
					"fontname" : "Arial",
					"id" : "obj-24",
					"fontface" : 1,
					"fontsize" : 12.0,
					"numinlets" : 1
				}

			}
, 			{
				"box" : 				{
					"maxclass" : "comment",
					"text" : "You need to download and install the Syphon Plugin for Max (free) BEFORE using this patch.\nPlease, download the last version of the plugin here:",
					"linecount" : 5,
					"numoutlets" : 0,
					"patching_rect" : [ 514.0, 261.0, 252.0, 75.0 ],
					"fontname" : "Arial",
					"id" : "obj-9",
					"fontsize" : 12.0,
					"numinlets" : 1
				}

			}
, 			{
				"box" : 				{
					"maxclass" : "comment",
					"text" : "IMPORTANT NOTE",
					"numoutlets" : 0,
					"patching_rect" : [ 515.0, 239.0, 125.0, 20.0 ],
					"fontname" : "Arial",
					"id" : "obj-4",
					"fontface" : 1,
					"fontsize" : 12.0,
					"numinlets" : 1
				}

			}
, 			{
				"box" : 				{
					"maxclass" : "comment",
					"text" : "For information:\nVideo Output\nFrame Rate",
					"linecount" : 3,
					"numoutlets" : 0,
					"patching_rect" : [ 559.0, 522.0, 99.0, 48.0 ],
					"fontname" : "Arial",
					"id" : "obj-17",
					"fontface" : 2,
					"fontsize" : 12.0,
					"numinlets" : 1
				}

			}
, 			{
				"box" : 				{
					"maxclass" : "comment",
					"text" : "Syphon Ouput",
					"numoutlets" : 0,
					"patching_rect" : [ 445.0, 414.0, 112.0, 23.0 ],
					"fontname" : "Arial",
					"id" : "obj-11",
					"fontsize" : 14.0,
					"numinlets" : 1
				}

			}
, 			{
				"box" : 				{
					"maxclass" : "comment",
					"text" : "play video file\nand launch Syphon Ouput",
					"linecount" : 3,
					"numoutlets" : 0,
					"patching_rect" : [ 376.0, 130.0, 95.0, 48.0 ],
					"fontname" : "Arial",
					"id" : "obj-10",
					"fontface" : 2,
					"fontsize" : 12.0,
					"numinlets" : 1
				}

			}
, 			{
				"box" : 				{
					"maxclass" : "comment",
					"text" : "2. Play / Pause",
					"numoutlets" : 0,
					"patching_rect" : [ 283.0, 67.0, 144.0, 23.0 ],
					"fontname" : "Arial",
					"id" : "obj-8",
					"fontface" : 1,
					"fontsize" : 14.0,
					"numinlets" : 1
				}

			}
, 			{
				"box" : 				{
					"maxclass" : "comment",
					"text" : "play sound",
					"numoutlets" : 0,
					"patching_rect" : [ 80.0, 198.0, 95.0, 20.0 ],
					"fontname" : "Arial",
					"id" : "obj-6",
					"fontsize" : 12.0,
					"numinlets" : 1
				}

			}
, 			{
				"box" : 				{
					"maxclass" : "comment",
					"text" : "1. Media file",
					"numoutlets" : 0,
					"patching_rect" : [ 39.0, 71.0, 93.0, 23.0 ],
					"fontname" : "Arial",
					"id" : "obj-2",
					"fontface" : 1,
					"fontsize" : 14.0,
					"numinlets" : 1
				}

			}
, 			{
				"box" : 				{
					"maxclass" : "comment",
					"text" : "MAX/MSP VIDEO >> MILLUMIN via SYPHON",
					"numoutlets" : 0,
					"patching_rect" : [ 29.0, 22.0, 364.0, 25.0 ],
					"fontname" : "Arial",
					"id" : "obj-42",
					"fontface" : 1,
					"fontsize" : 16.0,
					"numinlets" : 1
				}

			}
, 			{
				"box" : 				{
					"maxclass" : "toggle",
					"numoutlets" : 1,
					"patching_rect" : [ 54.0, 198.0, 20.0, 20.0 ],
					"outlettype" : [ "int" ],
					"id" : "obj-29",
					"numinlets" : 1
				}

			}
, 			{
				"box" : 				{
					"maxclass" : "message",
					"text" : "vol $1",
					"numoutlets" : 1,
					"patching_rect" : [ 364.0, 296.0, 43.0, 18.0 ],
					"fontname" : "Arial",
					"outlettype" : [ "" ],
					"id" : "obj-23",
					"fontsize" : 12.0,
					"numinlets" : 2
				}

			}
, 			{
				"box" : 				{
					"maxclass" : "newobj",
					"text" : "jit.window servercontext @visible 0",
					"numoutlets" : 0,
					"patching_rect" : [ 443.0, 467.0, 197.0, 20.0 ],
					"fontname" : "Arial",
					"id" : "obj-74",
					"fontsize" : 12.0,
					"numinlets" : 0
				}

			}
, 			{
				"box" : 				{
					"maxclass" : "newobj",
					"text" : "prepend read",
					"numoutlets" : 1,
					"patching_rect" : [ 412.0, 230.0, 82.0, 20.0 ],
					"fontname" : "Arial",
					"outlettype" : [ "" ],
					"id" : "obj-19",
					"fontsize" : 12.0,
					"numinlets" : 1
				}

			}
, 			{
				"box" : 				{
					"maxclass" : "jit.pwindow",
					"numoutlets" : 0,
					"patching_rect" : [ 372.0, 522.0, 179.0, 134.25 ],
					"id" : "obj-14",
					"numinlets" : 1
				}

			}
, 			{
				"box" : 				{
					"maxclass" : "comment",
					"text" : "drag and drop your video file here...",
					"linecount" : 2,
					"numoutlets" : 0,
					"patching_rect" : [ 46.0, 124.0, 118.0, 33.0 ],
					"fontname" : "Arial",
					"id" : "obj-20",
					"textcolor" : [ 1.0, 1.0, 1.0, 1.0 ],
					"fontface" : 1,
					"fontsize" : 11.595187,
					"frgb" : [ 1.0, 1.0, 1.0, 1.0 ],
					"numinlets" : 1
				}

			}
, 			{
				"box" : 				{
					"maxclass" : "newobj",
					"text" : "t b b",
					"numoutlets" : 2,
					"patching_rect" : [ 284.0, 296.0, 34.0, 20.0 ],
					"fontname" : "Arial",
					"outlettype" : [ "bang", "bang" ],
					"id" : "obj-18",
					"fontsize" : 12.0,
					"numinlets" : 1
				}

			}
, 			{
				"box" : 				{
					"maxclass" : "newobj",
					"text" : "jit.qt.movie 400 300",
					"numoutlets" : 2,
					"patching_rect" : [ 364.0, 339.0, 115.0, 20.0 ],
					"fontname" : "Arial",
					"outlettype" : [ "jit_matrix", "" ],
					"id" : "obj-13",
					"fontsize" : 12.0,
					"numinlets" : 1
				}

			}
, 			{
				"box" : 				{
					"maxclass" : "newobj",
					"text" : "jit.gl.syphonserver servercontext @servername MaxOutput",
					"numoutlets" : 0,
					"patching_rect" : [ 445.0, 388.0, 323.0, 20.0 ],
					"color" : [ 1.0, 0.0, 0.0, 1.0 ],
					"fontname" : "Arial",
					"id" : "obj-27",
					"fontsize" : 12.0,
					"numinlets" : 1
				}

			}
, 			{
				"box" : 				{
					"maxclass" : "button",
					"numoutlets" : 1,
					"patching_rect" : [ 284.0, 92.0, 86.0, 86.0 ],
					"outlettype" : [ "bang" ],
					"id" : "obj-7",
					"numinlets" : 1
				}

			}
, 			{
				"box" : 				{
					"maxclass" : "jit.fpsgui",
					"numoutlets" : 2,
					"patching_rect" : [ 284.0, 521.0, 80.0, 36.0 ],
					"fontname" : "Arial",
					"outlettype" : [ "", "" ],
					"id" : "obj-21",
					"fontsize" : 12.0,
					"numinlets" : 1
				}

			}
, 			{
				"box" : 				{
					"maxclass" : "newobj",
					"text" : "t erase b",
					"numoutlets" : 2,
					"patching_rect" : [ 284.0, 435.0, 57.0, 20.0 ],
					"fontname" : "Arial",
					"outlettype" : [ "erase", "bang" ],
					"id" : "obj-67",
					"fontsize" : 12.0,
					"numinlets" : 1
				}

			}
, 			{
				"box" : 				{
					"maxclass" : "toggle",
					"numoutlets" : 1,
					"patching_rect" : [ 284.0, 230.0, 20.0, 20.0 ],
					"outlettype" : [ "int" ],
					"id" : "obj-71",
					"numinlets" : 1
				}

			}
, 			{
				"box" : 				{
					"maxclass" : "newobj",
					"text" : "jit.gl.render servercontext",
					"numoutlets" : 1,
					"patching_rect" : [ 284.0, 466.0, 145.0, 20.0 ],
					"fontname" : "Arial",
					"outlettype" : [ "" ],
					"id" : "obj-72",
					"fontsize" : 12.0,
					"numinlets" : 1
				}

			}
, 			{
				"box" : 				{
					"maxclass" : "newobj",
					"text" : "qmetro 30",
					"numoutlets" : 1,
					"patching_rect" : [ 284.0, 264.411499, 65.0, 20.0 ],
					"fontname" : "Arial",
					"outlettype" : [ "bang" ],
					"id" : "obj-73",
					"fontsize" : 12.0,
					"numinlets" : 2
				}

			}
, 			{
				"box" : 				{
					"maxclass" : "dropfile",
					"numoutlets" : 2,
					"types" : [ "MooV" ],
					"patching_rect" : [ 40.0, 97.0, 136.0, 88.0 ],
					"outlettype" : [ "", "" ],
					"id" : "obj-34",
					"border" : 0.0,
					"numinlets" : 1
				}

			}
, 			{
				"box" : 				{
					"maxclass" : "panel",
					"bgcolor" : [ 0.27451, 0.831373, 0.035294, 1.0 ],
					"numoutlets" : 0,
					"background" : 1,
					"patching_rect" : [ 537.0, 63.0, 237.0, 125.0 ],
					"id" : "obj-28",
					"grad1" : [ 0.262745, 0.423529, 1.0, 1.0 ],
					"border" : 1,
					"numinlets" : 1,
					"grad2" : [ 0.329412, 0.329412, 1.0, 1.0 ]
				}

			}
, 			{
				"box" : 				{
					"maxclass" : "panel",
					"bgcolor" : [ 1.0, 0.243137, 0.243137, 1.0 ],
					"numoutlets" : 0,
					"background" : 1,
					"patching_rect" : [ 510.0, 230.0, 265.0, 141.781708 ],
					"id" : "obj-25",
					"grad1" : [ 0.262745, 0.423529, 1.0, 1.0 ],
					"border" : 1,
					"numinlets" : 1,
					"grad2" : [ 0.329412, 0.329412, 1.0, 1.0 ]
				}

			}
, 			{
				"box" : 				{
					"maxclass" : "panel",
					"bgcolor" : [ 0.6, 0.6, 0.6, 1.0 ],
					"numoutlets" : 0,
					"background" : 1,
					"patching_rect" : [ 276.0, 508.0, 387.0, 162.0 ],
					"id" : "obj-16",
					"grad1" : [ 0.262745, 0.423529, 1.0, 1.0 ],
					"border" : 1,
					"numinlets" : 1,
					"grad2" : [ 0.329412, 0.329412, 1.0, 1.0 ]
				}

			}
, 			{
				"box" : 				{
					"maxclass" : "panel",
					"bgcolor" : [ 0.54902, 0.54902, 0.54902, 1.0 ],
					"numoutlets" : 0,
					"background" : 1,
					"patching_rect" : [ 39.0, 96.0, 136.0, 89.0 ],
					"id" : "obj-3",
					"border" : 2,
					"numinlets" : 1
				}

			}
, 			{
				"box" : 				{
					"maxclass" : "panel",
					"bgcolor" : [ 1.0, 0.807843, 0.619608, 1.0 ],
					"numoutlets" : 0,
					"background" : 1,
					"patching_rect" : [ 439.0, 382.0, 337.0, 64.781708 ],
					"id" : "obj-53",
					"grad1" : [ 0.262745, 0.423529, 1.0, 1.0 ],
					"border" : 1,
					"numinlets" : 1,
					"grad2" : [ 0.329412, 0.329412, 1.0, 1.0 ]
				}

			}
, 			{
				"box" : 				{
					"maxclass" : "panel",
					"bgcolor" : [ 0.035294, 0.635294, 0.831373, 1.0 ],
					"numoutlets" : 0,
					"background" : 1,
					"patching_rect" : [ 274.0, 63.0, 209.0, 126.0 ],
					"id" : "obj-47",
					"grad1" : [ 0.262745, 0.423529, 1.0, 1.0 ],
					"border" : 1,
					"numinlets" : 1,
					"grad2" : [ 0.329412, 0.329412, 1.0, 1.0 ]
				}

			}
, 			{
				"box" : 				{
					"maxclass" : "panel",
					"bgcolor" : [ 0.658824, 0.776471, 0.301961, 1.0 ],
					"numoutlets" : 0,
					"background" : 1,
					"patching_rect" : [ 31.0, 63.0, 152.0, 174.0 ],
					"id" : "obj-33",
					"border" : 1,
					"numinlets" : 1
				}

			}
, 			{
				"box" : 				{
					"maxclass" : "panel",
					"bgcolor" : [ 0.709804, 0.709804, 0.709804, 1.0 ],
					"numoutlets" : 0,
					"background" : 1,
					"patching_rect" : [ 16.0, 7.0, 789.0, 689.28949 ],
					"id" : "obj-26",
					"border" : 1,
					"numinlets" : 1
				}

			}
 ],
		"lines" : [ 			{
				"patchline" : 				{
					"source" : [ "obj-73", 0 ],
					"destination" : [ "obj-18", 0 ],
					"hidden" : 0,
					"midpoints" : [  ]
				}

			}
, 			{
				"patchline" : 				{
					"source" : [ "obj-71", 0 ],
					"destination" : [ "obj-73", 0 ],
					"hidden" : 0,
					"midpoints" : [  ]
				}

			}
, 			{
				"patchline" : 				{
					"source" : [ "obj-29", 0 ],
					"destination" : [ "obj-23", 0 ],
					"hidden" : 0,
					"midpoints" : [ 63.5, 228.0, 269.0, 228.0, 269.0, 216.0, 373.5, 216.0 ]
				}

			}
, 			{
				"patchline" : 				{
					"source" : [ "obj-13", 0 ],
					"destination" : [ "obj-27", 0 ],
					"hidden" : 0,
					"midpoints" : [ 373.5, 376.0, 454.5, 376.0 ]
				}

			}
, 			{
				"patchline" : 				{
					"source" : [ "obj-13", 0 ],
					"destination" : [ "obj-14", 0 ],
					"hidden" : 0,
					"midpoints" : [ 373.5, 453.0, 431.0, 453.0, 431.0, 495.0, 381.5, 495.0 ]
				}

			}
, 			{
				"patchline" : 				{
					"source" : [ "obj-72", 0 ],
					"destination" : [ "obj-21", 0 ],
					"hidden" : 0,
					"midpoints" : [  ]
				}

			}
, 			{
				"patchline" : 				{
					"source" : [ "obj-7", 0 ],
					"destination" : [ "obj-71", 0 ],
					"hidden" : 0,
					"midpoints" : [  ]
				}

			}
, 			{
				"patchline" : 				{
					"source" : [ "obj-67", 0 ],
					"destination" : [ "obj-72", 0 ],
					"hidden" : 0,
					"midpoints" : [  ]
				}

			}
, 			{
				"patchline" : 				{
					"source" : [ "obj-67", 1 ],
					"destination" : [ "obj-72", 0 ],
					"hidden" : 0,
					"midpoints" : [  ]
				}

			}
, 			{
				"patchline" : 				{
					"source" : [ "obj-18", 0 ],
					"destination" : [ "obj-67", 0 ],
					"hidden" : 0,
					"midpoints" : [  ]
				}

			}
, 			{
				"patchline" : 				{
					"source" : [ "obj-18", 1 ],
					"destination" : [ "obj-13", 0 ],
					"hidden" : 0,
					"midpoints" : [ 308.5, 336.0, 373.5, 336.0 ]
				}

			}
, 			{
				"patchline" : 				{
					"source" : [ "obj-23", 0 ],
					"destination" : [ "obj-13", 0 ],
					"hidden" : 0,
					"midpoints" : [  ]
				}

			}
, 			{
				"patchline" : 				{
					"source" : [ "obj-34", 0 ],
					"destination" : [ "obj-19", 0 ],
					"hidden" : 0,
					"midpoints" : [ 49.5, 228.0, 269.0, 228.0, 269.0, 216.0, 421.5, 216.0 ]
				}

			}
, 			{
				"patchline" : 				{
					"source" : [ "obj-19", 0 ],
					"destination" : [ "obj-13", 0 ],
					"hidden" : 0,
					"midpoints" : [ 421.5, 324.0, 374.0, 324.0, 374.0, 336.0, 373.5, 336.0 ]
				}

			}
 ]
	}

}
