#N canvas 490 28 943 719 10;
#X declare -lib mrpeach;
#X declare -lib mrpeach;
#X obj 261 84 hsl 128 15 0 100 0 0 empty empty Opacity_(current_layer)
-2 -8 0 10 -262130 -99865 -1 0 0;
#X obj 38 269 unpackOSC;
#X obj 38 235 udpreceive 5001;
#X obj 469 11 import mrpeach;
#X obj 39 331 routeOSC /layer;
#X obj 39 362 routeOSC /opacity;
#X obj 38 395 routeOSC /0;
#X obj 298 350 udpsend;
#X obj 319 294 packOSC;
#X msg 501 259 send /millumin/layer/opacity/0 \$1;
#X msg 414 328 send /millumin/layer/rotation/1 0;
#X msg 414 379 send /millumin/layer/rotation/1 90;
#X obj 298 382 tgl 15 0 empty empty connected 20 7 0 8 -204786 -1 -162280
0 1;
#X msg 297 238 connect 127.0.0.1 5000;
#X msg 312 263 disconnect;
#X msg 414 352 send /millumin/layer/rotation/1 40.6;
#X obj 1223 18 gemhead 999;
#X obj 1217 95 syphonserver name;
#X msg 865 176 draw line;
#X obj 928 252 cube;
#X floatatom 1046 99 5 0 0 0 - - -;
#X floatatom 1094 100 5 0 0 0 - - -;
#X obj 1090 226 adc~;
#X obj 1092 256 env~;
#X floatatom 1093 282 5 0 0 0 - - -;
#X obj 1005 509 line;
#X obj 929 20 gemhead 50;
#X obj 708 148 line;
#X obj 718 71 * 100;
#X obj 933 66 scaleXYZ;
#X obj 930 141 rotateXYZ;
#X floatatom 976 535 5 0 0 0 - - -;
#X obj 1009 444 * 1;
#X msg 1008 475 \$1 100;
#X msg 706 107 \$1 100;
#X obj 38 301 routeOSC /millumin;
#X msg 1074 -76 stop;
#X obj 1056 -29 metro;
#X obj 1065 -2 timer;
#X floatatom 1093 403 5 0 0 0 - - -;
#X obj 1074 27 / 50;
#X obj 1100 307 - 25;
#X obj 1097 372 min 1;
#X msg 1064 -104 bang;
#X msg 1005 99 45;
#X obj 1098 336 / 25;
#X msg 799 -73 create;
#X obj 314 320 spigot;
#X msg 571 -148 START/STOP;
#N canvas 0 22 449 371 my_gemwin 0;
#X obj 132 298 gemwin;
#X obj 51 299 outlet;
#X obj 67 10 inlet;
#X obj 67 41 route create;
#X msg 26 119 set destroy;
#X msg 329 117 set create;
#X msg 329 153 destroy \, reset;
#X msg 41 154 create \, 1 \, frame 60 \, dimen 640 480;
#X connect 2 0 3 0;
#X connect 3 0 4 0;
#X connect 3 0 7 0;
#X connect 3 1 5 0;
#X connect 3 1 6 0;
#X connect 4 0 1 0;
#X connect 5 0 1 0;
#X connect 6 0 0 0;
#X connect 7 0 0 0;
#X restore 799 -53 pd my_gemwin;
#N canvas 138 36 449 371 my_sendosc 1;
#X obj 67 10 inlet;
#X obj 183 254 udpsend;
#X obj 300 145 packOSC;
#X obj 183 299 tgl 15 0 empty empty connected 20 7 0 8 -204786 -1 -162280
0 1;
#X msg 17 134 connect 127.0.0.1 5000;
#X obj 300 90 spigot;
#X obj 51 90 spigot;
#X obj 84 70 - 1;
#X obj 183 328 outlet;
#X msg 8 208 disconnect;
#X obj 294 280 import mrpeach;
#X connect 0 0 5 0;
#X connect 1 0 3 0;
#X connect 2 0 1 0;
#X connect 3 0 7 0;
#X connect 3 0 8 0;
#X connect 4 0 1 0;
#X connect 6 0 4 0;
#X connect 7 0 6 1;
#X connect 9 0 1 0;
#X restore 262 468 pd my_sendosc;
#X msg 264 430 send /millumin/layer/rotation/1 40.6;
#X obj 263 500 tgl 15 0 empty empty connected 20 7 0 8 -204786 -1 -162280
0 1;
#X connect 0 0 9 0;
#X connect 1 0 35 0;
#X connect 2 0 1 0;
#X connect 4 0 5 0;
#X connect 5 0 6 0;
#X connect 6 0 0 0;
#X connect 7 0 12 0;
#X connect 8 0 47 0;
#X connect 9 0 8 0;
#X connect 10 0 8 0;
#X connect 11 0 8 0;
#X connect 12 0 47 1;
#X connect 13 0 7 0;
#X connect 14 0 7 0;
#X connect 15 0 8 0;
#X connect 16 0 17 0;
#X connect 18 0 19 0;
#X connect 20 0 30 2;
#X connect 21 0 30 3;
#X connect 22 0 23 0;
#X connect 23 0 24 0;
#X connect 24 0 41 0;
#X connect 25 0 31 0;
#X connect 26 0 29 0;
#X connect 27 0 0 0;
#X connect 28 0 34 0;
#X connect 29 0 30 0;
#X connect 30 0 19 0;
#X connect 31 0 29 1;
#X connect 31 0 29 2;
#X connect 31 0 29 3;
#X connect 32 0 33 0;
#X connect 33 0 25 0;
#X connect 34 0 27 0;
#X connect 35 0 4 0;
#X connect 36 0 37 0;
#X connect 37 0 38 1;
#X connect 38 0 40 0;
#X connect 39 0 32 0;
#X connect 39 0 28 0;
#X connect 40 0 20 0;
#X connect 41 0 45 0;
#X connect 42 0 39 0;
#X connect 43 0 37 0;
#X connect 43 0 38 0;
#X connect 44 0 30 1;
#X connect 45 0 42 0;
#X connect 46 0 49 0;
#X connect 47 0 7 0;
#X connect 48 0 44 0;
#X connect 48 0 18 0;
#X connect 48 0 43 0;
#X connect 48 0 13 0;
#X connect 48 0 46 0;
#X connect 49 0 46 0;
#X connect 50 0 52 0;
#X connect 51 0 50 0;
#X coords 0 0 1 1 85 60 0;
