#N canvas 727 173 657 674 10;
#X declare -lib mrpeach;
#X obj 241 88 hsl 128 15 0 100 0 0 empty empty Opacity_(current_layer)
-2 -8 0 10 -262130 -99865 -1 0 0;
#X obj 38 269 unpackOSC;
#X obj 38 235 udpreceive 5001;
#X obj 469 11 import mrpeach;
#X obj 39 303 routeOSC /millumin;
#X obj 39 331 routeOSC /layer;
#X obj 39 362 routeOSC /opacity;
#X obj 38 395 routeOSC /0;
#X obj 298 350 udpsend;
#X obj 319 306 packOSC;
#X msg 501 259 send /millumin/layer/opacity/0 \$1;
#X msg 414 328 send /millumin/layer/rotation/1 0;
#X msg 414 379 send /millumin/layer/rotation/1 90;
#X obj 298 382 tgl 15 0 empty empty connected 20 7 0 8 -204786 -1 -162280
0 1;
#X msg 297 238 connect 127.0.0.1 5000;
#X msg 312 263 disconnect;
#X msg 414 352 send /millumin/layer/rotation/1 40.6;
#X msg 872 15 create;
#X obj 1223 18 gemhead 999;
#X obj 1217 95 syphonserver name;
#N canvas 0 22 450 300 gemwin 0;
#X obj 132 136 gemwin;
#X obj 67 89 outlet;
#X obj 67 10 inlet;
#X obj 67 41 route create;
#X msg 67 70 set destroy;
#X msg 142 68 set create;
#X msg 198 112 destroy \, reset;
#X msg 132 93 create \, 1 \, frame 60;
#X connect 2 0 3 0;
#X connect 3 0 4 0;
#X connect 3 0 7 0;
#X connect 3 1 5 0;
#X connect 3 1 6 0;
#X connect 4 0 1 0;
#X connect 5 0 1 0;
#X connect 6 0 0 0;
#X connect 7 0 0 0;
#X restore 872 35 pd gemwin (60fps);
#X msg 858 155 draw line;
#X msg 858 176 draw fill;
#X msg 858 198 draw point;
#X obj 963 75 gemhead;
#X floatatom 1001 196 5 0 0 0 - - -;
#X text 999 179 size;
#X obj 960 224 cube;
#X obj 963 146 rotateXYZ;
#X floatatom 1071 88 5 0 0 0 - - -;
#X floatatom 1025 87 5 0 0 0 - - -;
#X floatatom 1119 89 5 0 0 0 - - -;
#X msg 884 307 \; pd dsp \$1;
#X obj 883 273 tgl 15 0 empty empty empty 17 7 0 10 -262144 -1 -1 1
1;
#X msg 1014 274 60;
#X msg 1076 274 64;
#X obj 1054 314 mtof;
#X obj 1058 350 sig~;
#X obj 1133 361 osc~;
#X obj 1218 211 vsl 15 128 0 1 0 0 empty empty empty 0 -9 0 10 -262144
-1 -1 12700 1;
#X obj 1130 411 *~;
#X obj 1144 439 env~;
#X obj 1046 453 dac~ 1 2;
#X obj 1211 516 vu 15 120 empty empty -1 -8 0 10 -66577 -1 1 0;
#X obj 1155 478 - 100;
#X obj 920 420 tgl 15 0 empty empty empty 17 7 0 10 -262144 -1 -1 1
1;
#X obj 911 454 metro 50;
#X obj 909 492 tabwrite~ oscil;
#N canvas 0 22 450 300 (subpatch) 0;
#X array oscil 100 float 3;
#A 0 7.87957 8.47723 9.06311 9.63636 10.1962 10.7419 11.2727 11.7878
12.2865 12.7682 13.2321 13.6776 14.1042 14.5111 14.8979 15.264 15.6089
15.9321 16.2332 16.5117 16.7673 16.9996 17.2083 17.3931 17.5538 17.69
17.8017 17.8886 17.9507 17.9879 17.9999 17.987 17.9491 17.8863 17.7986
17.6862 17.5492 17.3879 17.2024 16.993 16.76 16.5037 16.2245 15.9227
15.5989 15.2533 14.8866 14.4992 14.0917 13.6646 13.2185 12.754 12.2718
11.7726 11.257 10.7258 10.1797 9.61934 9.04566 8.45942 7.86142 7.25251
6.63353 6.00534 5.3688 4.72481 4.07426 3.41805 2.75709 2.0923 1.4246
0.754926 0.0842021 -0.58664 -1.25667 -1.92495 -2.59056 -3.25258 -3.91008
-4.56215 -5.20789 -5.84639 -6.47678 -7.09814 -7.70963 -8.31041 -8.89964
-9.47651 -10.0402 -10.59 -11.125 -11.6446 -12.148 -12.6345 -13.1035
-13.5543 -13.9863 -14.3988 -14.7913 -15.1633;
#X coords 0 1 99 -1 200 140 1;
#X restore 665 488 graph;
#X obj 1122 198 adc~;
#X obj 1124 228 env~;
#X floatatom 1128 264 5 0 0 0 - - -;
#X floatatom 1049 246 5 0 0 0 - - -;
#X msg 1154 313 660;
#X connect 0 0 10 0;
#X connect 1 0 4 0;
#X connect 2 0 1 0;
#X connect 4 0 5 0;
#X connect 5 0 6 0;
#X connect 6 0 7 0;
#X connect 7 0 0 0;
#X connect 8 0 13 0;
#X connect 9 0 8 0;
#X connect 10 0 9 0;
#X connect 11 0 9 0;
#X connect 12 0 9 0;
#X connect 14 0 8 0;
#X connect 15 0 8 0;
#X connect 16 0 9 0;
#X connect 17 0 20 0;
#X connect 18 0 19 0;
#X connect 20 0 17 0;
#X connect 21 0 27 0;
#X connect 22 0 27 0;
#X connect 23 0 27 0;
#X connect 24 0 28 0;
#X connect 25 0 27 1;
#X connect 28 0 27 0;
#X connect 29 0 28 2;
#X connect 30 0 28 1;
#X connect 31 0 28 3;
#X connect 33 0 32 0;
#X connect 34 0 36 0;
#X connect 35 0 36 0;
#X connect 36 0 37 0;
#X connect 37 0 38 0;
#X connect 38 0 40 0;
#X connect 39 0 40 1;
#X connect 40 0 41 0;
#X connect 40 0 42 1;
#X connect 40 0 42 0;
#X connect 40 0 47 0;
#X connect 41 0 44 0;
#X connect 44 0 43 0;
#X connect 45 0 46 0;
#X connect 49 0 50 0;
#X connect 50 0 51 0;
#X connect 52 0 36 0;
#X connect 53 0 38 0;
#X coords 0 0 1 1 85 60 0;
