#N canvas 413 91 943 719 10;
#X declare -lib mrpeach;
#X obj 261 84 hsl 128 15 0 100 0 0 empty empty Opacity_(current_layer)
-2 -8 0 10 -262130 -99865 -1 4030 0;
#X obj 38 269 unpackOSC;
#X obj 38 235 udpreceive 5001;
#X obj 469 11 import mrpeach;
#X obj 39 331 routeOSC /layer;
#X obj 39 362 routeOSC /opacity;
#X obj 38 395 routeOSC /0;
#X obj 298 350 udpsend;
#X obj 319 306 packOSC;
#X msg 501 259 send /millumin/layer/opacity/0 \$1;
#X msg 414 328 send /millumin/layer/rotation/1 0;
#X msg 414 379 send /millumin/layer/rotation/1 90;
#X obj 298 382 tgl 15 0 empty empty connected 20 7 0 8 -204786 -1 -162280
1 1;
#X msg 297 238 connect 127.0.0.1 5000;
#X msg 312 263 disconnect;
#X msg 414 352 send /millumin/layer/rotation/1 40.6;
#X obj 1223 18 gemhead 999;
#X obj 1217 95 syphonserver name;
#X msg 826 183 draw line;
#X msg 826 204 draw fill;
#X msg 826 226 draw point;
#X floatatom 969 224 5 0 0 0 - - -;
#X text 967 207 size;
#X obj 928 252 cube;
#X floatatom 1046 99 5 0 0 0 - - -;
#X floatatom 999 101 5 0 0 0 - - -;
#X floatatom 1094 100 5 0 0 0 - - -;
#X obj 1090 226 adc~;
#X obj 1092 256 env~;
#X floatatom 1093 282 5 0 0 0 - - -;
#X obj 1005 509 line;
#X obj 929 20 gemhead 50;
#X obj 1100 307 - 45;
#X obj 708 148 line;
#X obj 718 71 * 100;
#X obj 933 66 scaleXYZ;
#X obj 930 141 rotateXYZ;
#X floatatom 976 535 5 0 0 0 - - -;
#X obj 1009 444 * 1;
#X msg 1008 475 \$1 100;
#X msg 706 107 \$1 100;
#X floatatom 1149 350 5 0 0 0 - - -;
#X obj 38 301 routeOSC /millumin;
#X msg 1064 -104 bang;
#X msg 1074 -76 stop;
#X obj 1056 -29 metro;
#X obj 1065 -2 timer;
#X floatatom 1168 -65 0 0 0 0 - - -;
#X floatatom 1196 -127 0 1 60 0 - - -;
#X msg 1165 -159 bang;
#X obj 1168 -86 /;
#X msg 1151 -127 1000;
#X floatatom 1093 403 5 0 0 0 - - -;
#X obj 1074 27 / 50;
#X obj 1098 336 / 30;
#X obj 751 315 gemhead;
#X msg 838 454 1 1 1;
#X obj 765 409 tgl 15 0 empty empty empty 0 -6 0 8 -262144 -1 -1 0
1;
#X msg 765 430 debug \$1;
#X floatatom 831 319 5 0 0 0 - - -;
#X obj 751 337 rotateXYZ 0 -120 0;
#X obj 817 502 cnv 15 85 50 empty empty empty 20 12 0 14 -24198 -66577
0;
#X msg 819 529 lighting \$1;
#X obj 819 507 tgl 15 0 empty empty empty 0 -6 0 8 -262144 -1 -1 0
1;
#X msg 837 431 1 1 0;
#X obj 751 476 world_light;
#N canvas 0 22 450 300 gemwin 0;
#X obj 132 136 gemwin;
#X obj 67 89 outlet;
#X obj 67 10 inlet;
#X obj 67 41 route create;
#X msg 67 70 set destroy;
#X msg 142 68 set create;
#X msg 256 112 destroy;
#X obj 322 45 inlet;
#X msg 132 112 create \, 1;
#X connect 2 0 3 0;
#X connect 3 0 4 0;
#X connect 3 0 8 0;
#X connect 3 1 5 0;
#X connect 3 1 6 0;
#X connect 4 0 1 0;
#X connect 5 0 1 0;
#X connect 6 0 0 0;
#X connect 7 0 0 0;
#X connect 8 0 0 0;
#X restore 820 -97 pd gemwin;
#X msg 820 -116 destroy;
#X obj 1097 372 min;
#X connect 0 0 9 0;
#X connect 1 0 42 0;
#X connect 2 0 1 0;
#X connect 4 0 5 0;
#X connect 5 0 6 0;
#X connect 6 0 0 0;
#X connect 7 0 12 0;
#X connect 8 0 7 0;
#X connect 9 0 8 0;
#X connect 10 0 8 0;
#X connect 11 0 8 0;
#X connect 13 0 7 0;
#X connect 14 0 7 0;
#X connect 15 0 8 0;
#X connect 16 0 17 0;
#X connect 18 0 23 0;
#X connect 19 0 23 0;
#X connect 20 0 23 0;
#X connect 21 0 23 1;
#X connect 24 0 36 2;
#X connect 25 0 36 1;
#X connect 26 0 36 3;
#X connect 27 0 28 0;
#X connect 28 0 29 0;
#X connect 29 0 32 0;
#X connect 30 0 37 0;
#X connect 31 0 35 0;
#X connect 32 0 54 0;
#X connect 33 0 0 0;
#X connect 34 0 40 0;
#X connect 35 0 36 0;
#X connect 36 0 23 0;
#X connect 37 0 35 1;
#X connect 37 0 35 2;
#X connect 37 0 35 3;
#X connect 38 0 39 0;
#X connect 39 0 30 0;
#X connect 40 0 33 0;
#X connect 41 0 68 1;
#X connect 42 0 4 0;
#X connect 43 0 45 0;
#X connect 43 0 46 0;
#X connect 44 0 45 0;
#X connect 45 0 46 1;
#X connect 46 0 53 0;
#X connect 47 0 45 1;
#X connect 48 0 50 1;
#X connect 48 0 49 0;
#X connect 49 0 51 0;
#X connect 50 0 47 0;
#X connect 51 0 50 0;
#X connect 52 0 38 0;
#X connect 52 0 34 0;
#X connect 53 0 24 0;
#X connect 54 0 68 0;
#X connect 55 0 60 0;
#X connect 56 0 65 1;
#X connect 57 0 58 0;
#X connect 58 0 65 0;
#X connect 59 0 60 2;
#X connect 60 0 65 0;
#X connect 62 0 66 1;
#X connect 63 0 62 0;
#X connect 64 0 65 1;
#X connect 66 0 67 0;
#X connect 67 0 66 0;
#X connect 68 0 52 0;
#X coords 0 0 1 1 85 60 0;
