#N canvas 568 23 838 716 10;
#X declare -lib mrpeach;
#X declare -lib mrpeach;
#X obj 577 -241 cnv 15 140 100 empty empty Render_Window 20 12 0 14
-261682 -66577 0;
#X obj 297 -397 cnv 15 200 120 empty empty empty 20 12 0 14 -258113
-66577 0;
#X obj 44 -320 cnv 15 180 180 empty empty Receive_OSC 20 12 0 14 -203904
-66577 0;
#X obj 44 -64 cnv 15 340 280 empty empty Send_OSC 20 12 0 14 -262130
-66577 0;
#X obj 577 -99 cnv 15 184 210 empty empty Audio_Input 20 12 0 14 -232576
-66577 0;
#X obj 511 146 cnv 15 280 100 empty empty Gems 20 12 0 14 -204786 -66577
0;
#X obj 129 -103 hsl 128 15 0 1 0 0 empty empty Opacity_(selected_layer)
-2 -8 0 10 -257985 -99865 -1 12700 0;
#X obj 67 -178 routeOSC /opacity;
#X msg 150 -34 send /millumin/selectedLayer/opacity \$1;
#X msg 150 19 send /millumin/index:1/rotation 0;
#X msg 150 71 send /millumin/index:1/rotation 90;
#X msg 151 45 send /millumin/index:1/rotation 40.6;
#X obj 662 174 gemhead 999;
#X obj 662 213 syphonserver name;
#X obj 531 173 gemhead 50;
#X obj 346 -120 * 100;
#X obj 67 -225 routeOSC /millumin;
#X msg 611 -206 destroy;
#X msg 365 -351 START/STOP;
#N canvas 0 22 449 371 my_gemwin 0;
#X obj 132 298 gemwin;
#X obj 51 299 outlet;
#X obj 67 10 inlet;
#X obj 67 41 route create;
#X msg 26 119 set destroy;
#X msg 329 117 set create;
#X msg 329 153 destroy \, reset;
#X msg 41 154 create \, 1 \, frame 60 \, dimen 640 480;
#X connect 2 0 3 0;
#X connect 3 0 4 0;
#X connect 3 0 7 0;
#X connect 3 1 5 0;
#X connect 3 1 6 0;
#X connect 4 0 1 0;
#X connect 5 0 1 0;
#X connect 6 0 0 0;
#X connect 7 0 0 0;
#X restore 611 -186 pd my_gemwin;
#X obj 63 182 tgl 15 0 empty empty connected 20 7 0 8 -204786 -1 -162280
1 1;
#N canvas 0 22 411 472 my_cube3d 0;
#X msg 65 -4 draw line;
#X obj 130 68 cube;
#X floatatom 246 -81 5 0 0 0 - - -;
#X floatatom 294 -80 5 0 0 0 - - -;
#X obj 130 -96 scaleXYZ;
#X obj 130 -39 rotateXYZ;
#X msg 291 -244 stop;
#X obj 273 -209 metro;
#X obj 246 -182 timer;
#X obj 246 -154 / 50;
#X msg 205 -81 45;
#X obj 65 -239 init bang;
#X obj 130 -314 inlet;
#X obj 176 -314 inlet;
#X connect 0 0 1 0;
#X connect 2 0 5 2;
#X connect 3 0 5 3;
#X connect 4 0 5 0;
#X connect 5 0 1 0;
#X connect 6 0 7 0;
#X connect 7 0 8 1;
#X connect 8 0 9 0;
#X connect 9 0 2 0;
#X connect 10 0 5 1;
#X connect 11 0 0 0;
#X connect 11 0 10 0;
#X connect 11 0 7 0;
#X connect 11 0 8 0;
#X connect 12 0 4 0;
#X connect 13 0 4 1;
#X connect 13 0 4 2;
#X connect 13 0 4 3;
#X restore 531 214 pd my_cube3d;
#N canvas 0 22 522 612 my-audioinput 0;
#X obj 82 44 adc~;
#X obj 82 73 env~;
#X floatatom 82 102 5 0 0 0 - - -;
#X floatatom 82 385 5 0 0 0 - - -;
#X obj 82 360 min 1;
#X obj 82 482 line;
#X msg 82 448 \$1 100;
#X obj 82 554 outlet;
#X obj 389 109 inlet;
#X obj 82 334 max 0;
#X obj 232 128 -;
#X obj 232 257 /;
#X floatatom 389 142 5 0 0 0 - - -;
#X obj 288 41 inlet;
#X floatatom 288 74 5 0 0 0 - - -;
#X obj 329 41 init 25;
#X obj 430 109 init 50;
#X floatatom 363 214 5 0 0 0 - - -;
#X obj 363 185 -;
#X msg 351 109 bang;
#X connect 0 0 1 0;
#X connect 1 0 2 0;
#X connect 2 0 10 0;
#X connect 3 0 6 0;
#X connect 4 0 3 0;
#X connect 5 0 7 0;
#X connect 6 0 5 0;
#X connect 8 0 12 0;
#X connect 9 0 4 0;
#X connect 10 0 11 0;
#X connect 11 0 9 0;
#X connect 12 0 18 0;
#X connect 13 0 14 0;
#X connect 14 0 10 1;
#X connect 14 0 18 1;
#X connect 14 0 19 0;
#X connect 15 0 14 0;
#X connect 16 0 12 0;
#X connect 17 0 11 1;
#X connect 18 0 17 0;
#X connect 19 0 12 0;
#X restore 600 57 pd my-audioinput;
#N canvas 14 24 445 508 my-sendosc 0;
#X obj 155 26 inlet;
#X obj 209 364 udpsend;
#X obj 335 257 packOSC;
#X obj 209 409 tgl 15 0 empty empty connected 20 7 0 8 -204786 -1 -162280
1 1;
#X msg 21 258 connect 127.0.0.1 5000;
#X obj 21 232 spigot;
#X obj 209 438 outlet;
#X obj 26 433 import mrpeach;
#X obj 155 62 route disconnect;
#X msg 155 204 disconnect;
#X obj 335 207 spigot;
#X obj 248 105 trigger a b;
#X obj 54 139 - 1;
#X obj 54 103 init 0;
#X obj 248 153 route send;
#X connect 0 0 8 0;
#X connect 1 0 3 0;
#X connect 2 0 1 0;
#X connect 3 0 6 0;
#X connect 3 0 10 1;
#X connect 3 0 12 0;
#X connect 4 0 1 0;
#X connect 5 0 4 0;
#X connect 8 0 9 0;
#X connect 8 1 11 0;
#X connect 9 0 1 0;
#X connect 10 0 2 0;
#X connect 11 0 14 0;
#X connect 11 1 5 0;
#X connect 12 0 5 1;
#X connect 13 0 12 0;
#X connect 14 0 10 0;
#X connect 14 1 1 0;
#X restore 63 150 pd my-sendosc;
#N canvas 9 510 450 300 my-receiveosc 0;
#X obj 54 80 unpackOSC;
#X obj 54 46 udpreceive 5001;
#X obj 54 113 outlet;
#X obj 268 75 import mrpeach;
#X connect 0 0 2 0;
#X connect 1 0 0 0;
#X restore 67 -288 pd my-receiveosc;
#X floatatom 600 82 5 0 0 0 - - -;
#X obj 600 -34 init 55;
#X floatatom 600 -8 5 0 0 0 - - -;
#X floatatom 693 -9 5 0 0 0 - - -;
#X obj 693 -34 init 65;
#X text 612 6 min;
#X text 705 5 max;
#X obj 67 -202 routeOSC /selectedLayer;
#X text 595 -80 Be sure to activate audio;
#X text 594 -66 (menubar Media/audio ON).;
#X connect 6 0 8 0;
#X connect 7 0 6 0;
#X connect 8 0 23 0;
#X connect 9 0 23 0;
#X connect 10 0 23 0;
#X connect 11 0 23 0;
#X connect 12 0 13 0;
#X connect 14 0 21 0;
#X connect 15 0 6 0;
#X connect 16 0 32 0;
#X connect 17 0 19 0;
#X connect 18 0 17 0;
#X connect 19 0 17 0;
#X connect 22 0 25 0;
#X connect 23 0 20 0;
#X connect 24 0 16 0;
#X connect 25 0 21 1;
#X connect 25 0 15 0;
#X connect 26 0 27 0;
#X connect 27 0 22 0;
#X connect 28 0 22 1;
#X connect 29 0 28 0;
#X connect 32 0 7 0;
#X coords 0 0 1 1 85 60 0;
